<?xml version="1.0" standalone="no"?>
<!DOCTYPE svg PUBLIC "-//W3C//DTD SVG 20010904//EN"
 "http://www.w3.org/TR/2001/REC-SVG-20010904/DTD/svg10.dtd">
<svg version="1.0" xmlns="http://www.w3.org/2000/svg"
 width="396.000000pt" height="127.000000pt" viewBox="0 0 396.000000 127.000000"
 preserveAspectRatio="xMidYMid meet">

<g transform="translate(0.000000,127.000000) scale(0.100000,-0.100000)"
fill="#000000" stroke="none">
<path d="M131 1260 c-40 -9 -77 -36 -105 -74 -20 -27 -21 -41 -24 -514 -2
-268 0 -506 3 -530 10 -65 61 -118 129 -132 36 -7 251 -10 677 -8 609 3 625 4
659 24 19 11 45 35 58 54 l23 34 -3 525 -3 526 -23 33 c-51 70 -17 67 -722 69
-349 1 -650 -2 -669 -7z m638 -155 c34 -17 41 -33 82 -207 l33 -138 172 0
c157 0 173 -2 197 -20 31 -25 47 -75 47 -150 0 -48 4 -59 30 -84 46 -43 64
-84 64 -147 1 -160 -178 -256 -310 -166 -26 17 -55 46 -63 64 l-16 31 -132 4
c-167 4 -177 11 -186 123 -8 90 -23 130 -71 183 -58 63 -93 76 -235 82 -119 6
-124 7 -147 34 -13 15 -24 40 -24 55 0 38 44 81 81 81 28 0 29 2 29 50 0 48
-1 50 -29 50 -36 0 -81 43 -81 79 0 32 25 69 54 81 11 5 124 9 249 9 181 1
234 -2 256 -14z m-242 -501 c29 -18 59 -49 78 -78 27 -44 30 -58 30 -126 0
-68 -3 -82 -30 -126 -19 -30 -49 -60 -80 -79 -44 -27 -57 -30 -131 -30 -75 0
-86 3 -125 30 -24 17 -57 50 -74 73 -25 37 -30 55 -33 116 -4 63 0 80 22 124
46 90 124 135 229 129 53 -4 78 -11 114 -33z"/>
<path d="M480 900 c0 -32 5 -52 13 -54 57 -14 129 -43 162 -65 22 -15 45 -30
51 -34 6 -4 0 38 -15 98 l-25 105 -93 0 -93 0 0 -50z"/>
<path d="M823 588 c3 -7 11 -39 18 -70 l13 -58 82 0 c79 0 83 1 103 28 11 15
36 37 55 47 25 14 36 26 36 42 0 23 0 23 -156 23 -121 0 -155 -3 -151 -12z"/>
<path d="M1175 386 c-20 -15 -17 -44 7 -59 12 -8 21 -7 32 2 36 30 -1 85 -39
57z"/>
<path d="M341 444 c-28 -36 -26 -60 8 -95 37 -37 65 -37 103 1 24 25 29 36 23
58 -11 43 -34 62 -76 62 -29 0 -42 -6 -58 -26z"/>
<path d="M1880 635 l0 -285 70 0 70 0 0 115 c0 105 2 115 18 115 25 0 47 -25
73 -85 51 -115 85 -145 165 -145 48 0 49 2 58 62 4 34 3 38 -18 38 -28 0 -53
28 -94 102 l-31 56 34 21 c101 59 97 219 -8 270 -38 18 -61 21 -190 21 l-147
0 0 -285z m260 165 c26 -26 25 -68 -2 -97 -17 -18 -32 -23 -70 -23 l-48 0 0
70 0 70 50 0 c37 0 55 -5 70 -20z"/>
<path d="M2400 635 l0 -285 70 0 70 0 0 93 c0 81 3 95 23 121 l23 29 63 -114
c35 -63 66 -118 70 -122 4 -4 42 -7 84 -5 l76 3 -98 171 -98 171 88 106 c49
59 89 109 89 112 0 3 -33 5 -72 5 l-73 -1 -65 -80 c-36 -44 -75 -94 -87 -112
l-23 -31 0 112 0 112 -70 0 -70 0 0 -285z"/>
<path d="M2930 635 l0 -285 195 0 195 0 0 50 0 50 -125 0 -125 0 0 70 0 70
100 0 100 0 0 50 0 50 -100 0 -100 0 0 65 0 65 120 0 120 0 0 50 0 50 -190 0
-190 0 0 -285z"/>
<path d="M3485 896 c-27 -14 -60 -33 -72 -43 l-21 -18 42 -47 42 -48 34 24
c65 43 119 46 140 6 18 -34 -12 -79 -134 -200 l-116 -115 0 -52 0 -53 210 0
210 0 0 65 0 65 -109 0 -108 0 92 93 c74 73 95 101 105 137 34 125 -45 210
-195 210 -54 0 -82 -6 -120 -24z"/>
</g>
</svg>
